<svg width="108" height="36" viewBox="0 0 108 36" fill="none" xmlns="http://www.w3.org/2000/svg">
<path d="M0.0340909 35V0.0909081H14.0114C16.5795 0.0909081 18.7216 0.47159 20.4375 1.23295C22.1534 1.99432 23.4432 3.05114 24.3068 4.40341C25.1705 5.74432 25.6023 7.28977 25.6023 9.03977C25.6023 10.4034 25.3295 11.6023 24.7841 12.6364C24.2386 13.6591 23.4886 14.5 22.5341 15.1591C21.5909 15.8068 20.5114 16.267 19.2955 16.5398V16.8807C20.625 16.9375 21.8693 17.3125 23.0284 18.0057C24.1989 18.6989 25.1477 19.6705 25.875 20.9205C26.6023 22.1591 26.9659 23.6364 26.9659 25.3523C26.9659 27.2045 26.5057 28.858 25.5852 30.3125C24.6761 31.7557 23.3295 32.8977 21.5455 33.7386C19.7614 34.5795 17.5625 35 14.9489 35H0.0340909ZM7.41477 28.9659H13.4318C15.4886 28.9659 16.9886 28.5739 17.9318 27.7898C18.875 26.9943 19.3466 25.9375 19.3466 24.6193C19.3466 23.6534 19.1136 22.8011 18.6477 22.0625C18.1818 21.3239 17.517 20.7443 16.6534 20.3239C15.8011 19.9034 14.7841 19.6932 13.6023 19.6932H7.41477V28.9659ZM7.41477 14.6989H12.8864C13.8977 14.6989 14.7955 14.5227 15.5795 14.1705C16.375 13.8068 17 13.2955 17.4545 12.6364C17.9205 11.9773 18.1534 11.1875 18.1534 10.267C18.1534 9.00568 17.7045 7.98864 16.8068 7.21591C15.9205 6.44318 14.6591 6.05682 13.0227 6.05682H7.41477V14.6989ZM37.7855 35H29.8764L41.9276 0.0909081H51.4389L63.473 35H55.5639L46.8196 8.06818H46.5469L37.7855 35ZM37.2912 21.2784H55.973V27.0398H37.2912V21.2784ZM67.6747 35V0.0909081H81.4474C84.0838 0.0909081 86.3338 0.562499 88.1974 1.50568C90.0724 2.4375 91.4986 3.76136 92.4759 5.47727C93.4645 7.18182 93.9588 9.1875 93.9588 11.4943C93.9588 13.8125 93.4588 15.8068 92.4588 17.4773C91.4588 19.1364 90.0099 20.4091 88.1122 21.2955C86.2259 22.1818 83.9418 22.625 81.2599 22.625H72.0384V16.6932H80.0668C81.4759 16.6932 82.6463 16.5 83.5781 16.1136C84.5099 15.7273 85.2031 15.1477 85.6577 14.375C86.1236 13.6023 86.3565 12.642 86.3565 11.4943C86.3565 10.3352 86.1236 9.35795 85.6577 8.5625C85.2031 7.76704 84.5043 7.16477 83.5611 6.75568C82.6293 6.33523 81.4531 6.125 80.0327 6.125H75.0554V35H67.6747ZM86.527 19.1136L95.2031 35H87.0554L78.5668 19.1136H86.527Z" fill="white"/>
<path d="M103.283 35.4432C102.158 35.4432 101.192 35.0455 100.385 34.25C99.5895 33.4432 99.1918 32.4773 99.1918 31.3523C99.1918 30.2386 99.5895 29.2841 100.385 28.4886C101.192 27.6932 102.158 27.2955 103.283 27.2955C104.374 27.2955 105.328 27.6932 106.146 28.4886C106.964 29.2841 107.374 30.2386 107.374 31.3523C107.374 32.1023 107.18 32.7898 106.794 33.4148C106.419 34.0284 105.925 34.5227 105.311 34.8977C104.697 35.2614 104.021 35.4432 103.283 35.4432Z" fill="black"/>
</svg>
